HIERARCHY
ROOT Bip01_Pelvis
{
	OFFSET 0.000000 0.839532 0.000000
	CHANNELS 6 Xposition Yposition Zposition Zrotation Yrotation Xrotation 
	JOINT BN_Tail_01
	{
		OFFSET -0.009409 0.085362 -0.136899
		CHANNELS 3 Zrotation Yrotation Xrotation
		JOINT BN_Tail_02
		{
			OFFSET -0.014885 -0.086122 -0.370687
			CHANNELS 3 Zrotation Yrotation Xrotation
			End Site #name: BN_Tail_03
			{
				OFFSET -0.013822 -0.033121 -0.344212
			}
		}
	}
	JOINT Bip01_Spine
	{
		OFFSET 0.007219 -0.022001 0.201243
		CHANNELS 3 Zrotation Yrotation Xrotation
		JOINT Bip01_R_Thigh
		{
			OFFSET -0.095309 0.020299 -0.204710
			CHANNELS 3 Zrotation Yrotation Xrotation
			JOINT Bip01_R_Calf
			{
				OFFSET -0.050472 -0.340261 0.038148
				CHANNELS 3 Zrotation Yrotation Xrotation
				JOINT Bip01_R_HorseLink
				{
					OFFSET 0.009748 -0.221992 -0.209761
					CHANNELS 3 Zrotation Yrotation Xrotation
					JOINT Bip01_R_Foot
					{
						OFFSET -0.031895 -0.202561 0.032876
						CHANNELS 3 Zrotation Yrotation Xrotation
						JOINT Bip01_R_Toe0
						{
							OFFSET -0.013787 -0.070130 0.061873
							CHANNELS 3 Zrotation Yrotation Xrotation
							End Site #name: Bip01_R_Toe0Nub
							{
								OFFSET -0.017575 -0.002853 0.082462
							}
						}
					}
				}
			}
		}
		JOINT Bip01_L_Thigh
		{
			OFFSET 0.088204 0.020264 -0.198335
			CHANNELS 3 Zrotation Yrotation Xrotation
			JOINT Bip01_L_Calf
			{
				OFFSET 0.053371 -0.340260 0.033977
				CHANNELS 3 Zrotation Yrotation Xrotation
				JOINT Bip01_L_HorseLink
				{
					OFFSET -0.026535 -0.221992 -0.208304
					CHANNELS 3 Zrotation Yrotation Xrotation
					JOINT Bip01_L_Foot
					{
						OFFSET 0.034431 -0.202561 0.030212
						CHANNELS 3 Zrotation Yrotation Xrotation
						JOINT Bip01_L_Toe0
						{
							OFFSET 0.018704 -0.070130 0.060568
							CHANNELS 3 Zrotation Yrotation Xrotation
							End Site #name: Bip01_L_Toe0Nub
							{
								OFFSET 0.024131 -0.002853 0.080787
							}
						}
					}
				}
			}
		}
		JOINT Bip01_Spine1
		{
			OFFSET 0.021081 -0.002837 0.204232
			CHANNELS 3 Zrotation Yrotation Xrotation
			JOINT Bip01_Spine2
			{
				OFFSET 0.008239 -0.000000 0.205173
				CHANNELS 3 Zrotation Yrotation Xrotation
				JOINT Bip01_Neck
				{
					OFFSET 0.008891 0.036465 0.221398
					CHANNELS 3 Zrotation Yrotation Xrotation
					JOINT Bip01_R_Clavicle
					{
						OFFSET -0.082551 0.086601 -0.070067
						CHANNELS 3 Zrotation Yrotation Xrotation
						JOINT Bip01_R_UpperArm
						{
							OFFSET -0.081467 -0.221566 0.155342
							CHANNELS 3 Zrotation Yrotation Xrotation
							JOINT Bip01_R_Forearm
							{
								OFFSET 0.032471 -0.207279 -0.170957
								CHANNELS 3 Zrotation Yrotation Xrotation
								JOINT Bip01_R_Hand
								{
									OFFSET 0.035936 -0.331089 0.055466
									CHANNELS 3 Zrotation Yrotation Xrotation
									JOINT Bip01_R_Finger0
									{
										OFFSET 0.012208 -0.137310 0.023210
										CHANNELS 3 Zrotation Yrotation Xrotation
										JOINT Bip01_R_Finger01
										{
											OFFSET -0.019264 0.001357 0.114299
											CHANNELS 3 Zrotation Yrotation Xrotation
											End Site #name: Bip01_R_Finger0Nub
											{
												OFFSET -0.011628 -0.000723 0.071099
											}
										}
									}
								}
							}
						}
					}
					JOINT Bip01_L_Clavicle
					{
						OFFSET 0.076594 0.086691 -0.076442
						CHANNELS 3 Zrotation Yrotation Xrotation
						JOINT Bip01_L_UpperArm
						{
							OFFSET 0.093660 -0.221563 0.148314
							CHANNELS 3 Zrotation Yrotation Xrotation
							JOINT Bip01_L_Forearm
							{
								OFFSET -0.046075 -0.207282 -0.167799
								CHANNELS 3 Zrotation Yrotation Xrotation
								JOINT Bip01_L_Hand
								{
									OFFSET -0.031373 -0.331088 0.058175
									CHANNELS 3 Zrotation Yrotation Xrotation
									JOINT Bip01_L_Finger0
									{
										OFFSET -0.010308 -0.137310 0.024117
										CHANNELS 3 Zrotation Yrotation Xrotation
										JOINT Bip01_L_Finger01
										{
											OFFSET 0.028367 0.001359 0.112386
											CHANNELS 3 Zrotation Yrotation Xrotation
											End Site #name: Bip01_L_Finger0Nub
											{
												OFFSET 0.017292 -0.000721 0.069938
											}
										}
									}
								}
							}
						}
					}
					JOINT Bip01_Neck1
					{
						OFFSET 0.006650 0.097274 0.167145
						CHANNELS 3 Zrotation Yrotation Xrotation
						JOINT Bip01_Head
						{
							OFFSET 0.006481 0.091507 0.161377
							CHANNELS 3 Zrotation Yrotation Xrotation
							End Site #name: BN_Mouth_01
							{
								OFFSET 0.001201 -0.016686 0.110222
							}
							End Site #name: BN_Ear_L_01
							{
								OFFSET 0.115409 0.155912 0.020688
							}
							End Site #name: BN_Ear_R_01
							{
								OFFSET -0.119810 0.155918 0.030132
							}
							End Site #name: Bip01_HeadNub
							{
								OFFSET 0.012463 0.035566 0.310381
							}
						}
					}
				}
			}
		}
	}
}
MOTION
Frames: 11
Frame Time: 0.041667
0.028891 1.017950 -0.592968 -2.288667 -3.937370 -30.874617 144.255139 6.892218 18.122044 2.321039 21.790418 10.062072 13.428080 -2.437743 -8.213474 3.256405 34.668274 54.674801 19.702756 -15.945932 -4.483669 -6.702901 -6.734683 24.814123 31.299337 -10.811764 69.620574 1.716587 -2.060973 6.496281 8.460198 35.582314 30.872149 24.514379 -18.469488 -2.071988 -19.737751 3.403315 22.118120 12.124708 15.748986 75.920477 -13.860519 -7.705711 17.336629 -1.076354 8.707622 1.918875 1.283985 6.501093 3.245520 -7.841773 -3.540317 17.603944 -171.744065 50.530937 -94.914799 -26.254829 14.434873 -124.694088 10.161461 22.215041 91.415054 102.847730 -40.603655 -88.878856 52.449144 5.643087 92.250432 1.359604 22.704542 -1.162075 35.984451 -33.117807 -10.182557 117.363516 -1.022493 110.781479 -25.900128 54.262805 116.394158 -73.640771 37.111330 -104.506928 -48.730802 21.193238 67.793546 4.487786 -32.117068 -9.964137 -52.555646 -9.708825 21.150106 48.302842 19.414123 13.042921 
0.026897 1.052248 -0.522001 -2.681635 -0.882300 -28.830602 141.756218 8.863478 17.490508 2.393762 26.026484 8.575896 11.468036 -5.115609 -9.027645 0.079234 37.776164 46.937679 24.313708 -19.623248 3.706099 -8.613392 -5.351863 19.020263 30.363940 -9.125156 68.093960 0.419050 -2.133288 0.511504 11.990990 36.101047 33.501579 24.308087 -18.106117 -3.735338 -19.664445 3.463439 22.573984 10.243242 14.893911 75.221639 -13.494662 -9.384147 14.401406 -1.763165 7.992316 0.780363 0.894421 6.826912 0.738094 -7.850057 -6.482220 12.052733 -176.017581 47.054319 -101.578801 -26.506478 18.380046 -122.821353 11.557747 24.994096 104.627198 99.549576 -39.203973 -83.180525 64.536017 5.996878 93.739255 1.311940 24.800292 -1.296229 31.517732 -33.764686 -2.617496 118.176132 4.431186 107.671842 -22.291870 61.148019 128.720643 -78.526302 42.347884 -103.728699 -52.460436 18.576583 63.361370 4.613755 -32.617633 -10.139372 -52.052507 -8.668981 19.039372 51.617992 20.102525 6.038140 
0.025597 1.080766 -0.444025 -1.959803 1.554118 -26.611804 139.015118 10.966624 16.608786 2.785646 29.643396 6.953316 9.291651 -6.638378 -9.957326 -0.878337 38.911656 43.311936 26.274885 -21.517298 7.432018 -9.310384 -4.915797 16.992218 29.994077 -9.241408 66.954185 0.296766 -2.118083 -0.055469 13.346168 35.830721 33.732197 24.564533 -18.561711 -1.653536 -19.917572 3.251645 20.987366 7.977819 14.817249 75.023858 -13.467869 -9.438633 14.262621 -1.805356 7.384463 -0.224710 0.609128 6.543845 -0.887200 -7.585411 -7.328495 10.300450 -175.176476 45.326652 -101.808638 -25.927480 22.044445 -121.180606 13.797523 27.519838 118.967647 96.456185 -37.915333 -77.576653 74.872881 6.124034 94.842765 1.265945 26.181496 -1.445378 31.805403 -33.784736 0.268005 121.457598 9.182182 114.061748 -20.271489 63.245219 133.483633 -80.758836 47.011706 -99.152579 -54.526903 16.012537 60.447619 4.995350 -34.071729 -10.664937 -52.260648 -10.077075 17.127631 53.481899 20.897200 4.174014 
0.024756 1.107660 -0.363165 -0.791926 3.571193 -24.207159 136.137032 13.085281 15.477994 3.041414 32.248000 5.480992 7.199076 -7.819560 -10.861986 -1.120373 39.381455 40.865821 27.768521 -23.120207 10.406186 -9.651038 -4.714788 16.014905 29.674288 -9.828396 66.276778 0.296828 -2.118085 -0.055179 13.915629 35.051570 32.950934 25.135058 -19.747533 3.614108 -20.411439 2.801848 17.778919 4.925995 14.955423 75.392093 -13.578255 -9.014064 15.039593 -1.700670 6.747398 -1.387883 0.267747 6.059339 -2.399528 -7.076829 -7.202422 10.542946 -172.445048 44.423287 -98.952981 -25.387677 25.169545 -119.764289 16.627135 29.408200 133.233561 93.505065 -37.028489 -72.199563 82.941875 6.085696 95.423608 1.226529 27.000971 -1.607209 34.555826 -33.530806 0.785601 127.468563 12.526602 126.182261 -20.434158 63.097339 133.124835 -81.686980 51.971003 -91.651707 -56.434755 12.475909 57.453224 5.657635 -36.408447 -11.551279 -52.891056 -12.971945 15.029065 54.827071 21.780515 5.212332 
0.024203 1.131489 -0.281622 0.582913 5.179305 -21.584998 133.355113 15.027194 14.195984 3.138577 34.085000 3.989600 5.325695 -8.773384 -11.692057 -1.028469 39.476807 38.905608 29.077061 -24.656489 13.134687 -9.848542 -4.601766 15.452164 29.370859 -10.761121 65.709330 0.296828 -2.118085 -0.055179 13.869978 34.059875 31.362136 25.729609 -21.442859 10.880228 -21.034711 2.154196 13.468025 1.322441 15.080079 75.768283 -13.743937 -8.314015 16.299877 -1.519989 6.079729 -2.679928 -0.127005 5.443325 -3.879157 -6.483129 -6.495587 12.012030 -168.882457 43.889289 -94.353845 -25.075085 27.021229 -117.960286 19.357614 30.463303 145.303941 90.646262 -36.948585 -67.330121 87.673073 5.940198 95.318377 1.202354 27.349778 -1.723890 38.750887 -32.941363 -0.091104 135.090686 12.802453 141.745545 -22.020908 61.467421 129.404604 -81.037647 57.189709 -81.790149 -57.783640 8.599982 54.662268 6.455525 -38.943476 -12.588785 -53.647437 -16.798125 12.855326 55.861698 22.767002 7.969262 
0.023772 1.150152 -0.202280 1.989177 6.361387 -18.763700 130.972558 16.595886 12.959057 3.107508 35.339609 2.424295 3.809374 -9.489184 -12.447146 -0.756230 39.339287 37.245919 30.179401 -26.061137 15.543990 -9.976594 -4.529848 15.088759 29.095492 -11.801120 65.092847 0.296828 -2.118084 -0.055179 13.237044 33.144290 29.093859 26.107790 -23.302914 18.666077 -21.662609 1.388760 8.728629 -2.382562 15.129231 75.597019 -13.897339 -7.576928 17.601739 -1.271122 5.412474 -4.003879 -0.526812 4.747860 -5.284446 -5.997456 -5.485788 14.042638 -165.310829 43.529689 -89.220227 -24.994358 26.899166 -115.191595 21.172328 30.858503 152.878127 87.833585 -38.014909 -63.277937 88.257702 5.698059 94.496880 1.189851 27.341117 -1.814318 43.490398 -32.007418 -1.550931 142.087316 9.537780 157.747937 -23.893538 58.897728 124.241862 -78.254172 62.264953 -70.125582 -58.129710 5.372902 52.506539 7.137794 -40.922994 -13.438803 -54.262962 -20.961395 10.814879 56.645029 23.846569 11.383951 
0.023278 1.162646 -0.123474 3.307070 7.183443 -15.627432 129.167029 17.720965 11.941749 2.992020 36.183662 0.710377 2.696436 -9.988405 -13.177650 -0.443358 39.090503 35.602799 31.111819 -27.340360 17.679274 -10.123736 -4.448505 14.672591 28.875860 -13.105131 64.059918 0.296829 -2.118079 -0.055178 11.984947 32.514288 26.121752 26.211988 -25.043472 25.925910 -22.232275 0.562526 3.933562 -5.958423 15.146640 74.292422 -14.018045 -6.933063 18.736387 -0.954008 4.747011 -5.342612 -0.910646 3.976208 -6.640504 -5.785799 -4.353722 16.107776 -162.342808 43.289964 -84.134680 -24.869134 23.410379 -110.308049 21.422641 30.896020 153.906541 84.555820 -41.136446 -59.825063 81.244662 4.718410 92.135204 1.207216 26.509082 -1.849704 48.228614 -30.880928 -2.960327 147.187118 3.772219 172.478879 -25.377820 55.839563 118.899257 -72.644003 67.091504 -56.495485 -57.152708 3.608869 51.242009 7.429246 -41.682165 -13.828057 -54.574504 -25.094054 8.965402 57.318897 25.036654 14.643611 
0.022538 1.167183 -0.046067 4.373134 7.717831 -12.106074 128.223742 18.285786 11.388941 2.813055 36.733042 -1.175423 2.091221 -10.287036 -13.907038 -0.247214 38.856223 33.732363 31.879472 -28.465696 19.518618 -10.366349 -4.317379 13.989561 28.680142 -14.535759 62.401483 0.296829 -2.118071 -0.055178 10.057195 32.402128 22.449445 26.135348 -26.298066 31.220974 -22.682418 -0.215864 -0.355270 -8.962866 15.170394 71.223335 -14.063339 -6.538373 19.358351 -0.570168 4.097034 -6.628727 -1.243676 3.158926 -7.941481 -6.085696 -3.319971 17.557755 -160.702830 43.163497 -79.566276 -24.275757 15.098554 -102.757841 19.902237 30.605315 147.603209 79.746891 -47.379816 -55.984124 61.512703 1.198203 87.531747 1.274616 23.657969 -1.827959 52.344511 -29.967129 -3.754081 150.235360 -2.457330 -175.428362 -26.236637 52.923278 114.370678 -63.763915 71.421092 -41.271339 -54.572387 4.149032 51.260724 7.021969 -40.585046 -13.308005 -54.401245 -28.661392 7.403207 58.027249 26.220696 16.786555 
0.021475 1.162243 0.027488 4.758168 7.850093 -8.350465 128.324787 18.232147 11.359411 2.681270 36.896545 -3.410875 2.449862 -10.230885 -14.567724 -0.310389 38.749905 31.442576 32.479564 -29.397205 21.017517 -10.779448 -4.102538 12.835138 28.447919 -15.988420 59.960365 0.296830 -2.118043 -0.055177 7.171512 32.983594 17.887160 26.070694 -26.780894 33.285595 -22.998112 -0.857628 -3.762237 -10.790262 15.058211 65.829041 -14.244136 -7.679877 18.548057 -0.136670 3.485049 -7.785567 -1.495191 2.346671 -9.157767 -7.260928 -2.470494 17.915807 -160.256064 43.219708 -76.618375 -23.889428 3.866816 -94.620425 17.370485 29.757218 136.632427 72.712897 -55.431121 -50.658481 34.702767 -4.829779 83.925995 1.368359 19.561009 -1.773068 55.754440 -29.707321 -3.840161 151.577929 -6.608567 -166.611443 -26.630599 50.491074 110.897490 -50.479048 75.746175 -24.877988 -48.161635 9.786079 54.770111 5.317098 -35.236423 -11.098251 -53.603923 -31.371839 6.378730 58.671940 27.371071 17.128440 
0.020209 1.147077 0.097300 3.621466 7.321731 -4.597266 129.337398 17.586270 11.496671 2.766304 36.196930 -6.593899 4.692490 -9.455438 -14.935684 -0.796142 38.870077 28.445930 32.929674 -30.129477 22.182745 -11.458692 -3.771652 10.958846 27.994712 -17.404597 56.554830 0.296834 -2.117948 -0.055172 2.662590 34.144480 11.746286 26.102127 -26.564630 32.358570 -23.239829 -1.426469 -6.704013 -10.980505 14.229258 57.910791 -14.894785 -13.725359 14.209872 0.336006 2.914509 -8.775476 -1.642805 1.562084 -10.302856 -9.624666 -1.565103 17.406972 -159.990982 43.536204 -75.296194 -23.985400 -8.030200 -87.280406 14.659021 28.205920 123.601237 61.863105 -63.909852 -41.920246 6.053732 -11.245004 83.307410 1.464878 15.082544 -1.714916 58.975605 -30.115320 -3.884049 151.406571 -7.421238 -160.223073 -26.788703 47.735223 107.208130 -25.123464 80.591830 -1.002517 -32.517544 22.202322 67.051162 2.488496 -22.473954 -6.965407 -52.150743 -33.731327 6.110706 58.833268 28.786080 15.929799 
0.018769 1.122623 0.165601 1.082700 6.565949 -0.756073 131.066250 16.288238 11.655929 2.978502 34.734113 -10.706489 8.403124 -8.220403 -14.953132 -1.897012 39.289763 24.429115 33.233019 -30.640931 22.990505 -12.510149 -3.311858 8.101973 27.060007 -18.697116 52.048537 0.296829 -2.118073 -0.055178 -3.245567 35.348269 4.104703 26.171428 -25.928787 29.653252 -23.437237 -1.963151 -9.424262 -9.563751 11.846814 48.604801 -14.946947 -23.263413 7.178127 0.851553 2.391061 -9.536714 -1.658170 0.818624 -11.388154 -12.655699 -0.627648 16.473955 -159.561279 44.117562 -75.268943 -24.576157 -18.186748 -82.029489 12.465373 26.184806 110.984700 44.319529 -71.155592 -26.608851 -19.113675 -15.275199 84.743751 1.545710 11.092647 -1.667198 61.003815 -31.100317 -3.748946 151.722146 -6.976487 -155.670041 -26.613546 44.155813 102.696918 17.442886 83.005234 38.236724 -10.203118 30.895039 86.103305 0.598272 -8.091818 -3.365592 -50.314188 -35.784462 6.188378 58.681871 30.175712 13.574900 
